TextAR-Light.ufo
<glyph name="parenright" format="2">
  <advance width="406"/>
  <unicode hex="0029"/>
  <outline>
    <contour>
      <point x="342" y="351" type="curve" smooth="yes"/>
      <point x="342" y="540"/>
      <point x="241" y="709"/>
      <point x="66" y="824" type="curve"/>
      <point x="36" y="786" type="line"/>
      <point x="191" y="677"/>
      <point x="281" y="523"/>
      <point x="281" y="349" type="curve" smooth="yes"/>
      <point x="281" y="175"/>
      <point x="191" y="22"/>
      <point x="36" y="-88" type="curve"/>
      <point x="66" y="-126" type="line"/>
      <point x="241" y="-11"/>
      <point x="342" y="160"/>
    </contour>
  </outline>
</glyph>
<glyph name="comma" format="2">
  <advance width="219"/>
  <unicode hex="002C"/>
  <outline>
    <contour>
      <point x="30" y="-122" type="line"/>
      <point x="71" y="-122" type="line"/>
      <point x="171" y="84" type="line"/>
      <point x="97" y="84" type="line"/>
    </contour>
  </outline>
</glyph>
<glyph name="one" format="2">
  <advance width="333"/>
  <unicode hex="0031"/>
  <outline>
    <contour>
      <point x="42" y="649" type="line"/>
      <point x="170" y="649" type="line"/>
      <point x="170" y="0" type="line"/>
      <point x="231" y="0" type="line"/>
      <point x="231" y="700" type="line"/>
      <point x="42" y="700" type="line"/>
    </contour>
  </outline>
</glyph>
<glyph name="four" format="2">
  <advance width="653"/>
  <unicode hex="0034"/>
  <outline>
    <contour>
      <point x="38" y="178" type="line"/>
      <point x="423" y="178" type="line"/>
      <point x="423" y="0" type="line"/>
      <point x="484" y="0" type="line"/>
      <point x="484" y="178" type="line"/>
      <point x="617" y="178" type="line"/>
      <point x="617" y="229" type="line"/>
      <point x="484" y="229" type="line"/>
      <point x="484" y="700" type="line"/>
      <point x="389" y="700" type="line"/>
      <point x="38" y="229" type="line"/>
    </contour>
    <contour>
      <point x="426" y="226" type="line"/>
      <point x="100" y="226" type="line"/>
      <point x="426" y="661" type="line"/>
    </contour>
  </outline>
</glyph>
<glyph name="five" format="2">
  <advance width="624"/>
  <unicode hex="0035"/>
  <outline>
    <contour>
      <point x="305" y="-17" type="curve" smooth="yes"/>
      <point x="468" y="-17"/>
      <point x="563" y="95"/>
      <point x="563" y="225" type="curve" smooth="yes"/>
      <point x="563" y="371"/>
      <point x="450" y="451"/>
      <point x="326" y="451" type="curve" smooth="yes"/>
      <point x="261" y="451"/>
      <point x="195" y="423"/>
      <point x="145" y="385" type="curve"/>
      <point x="168" y="649" type="line"/>
      <point x="519" y="649" type="line"/>
      <point x="519" y="700" type="line"/>
      <point x="114" y="700" type="line"/>
      <point x="85" y="328" type="line"/>
      <point x="88" y="323" type="line"/>
      <point x="131" y="318" type="line"/>
      <point x="194" y="373"/>
      <point x="255" y="399"/>
      <point x="318" y="399" type="curve" smooth="yes"/>
      <point x="413" y="399"/>
      <point x="501" y="336"/>
      <point x="501" y="223" type="curve" smooth="yes"/>
      <point x="501" y="119"/>
      <point x="425" y="35"/>
      <point x="308" y="35" type="curve" smooth="yes"/>
      <point x="236" y="35"/>
      <point x="164" y="71"/>
      <point x="103" y="150" type="curve"/>
      <point x="60" y="112" type="line"/>
      <point x="130" y="21"/>
      <point x="210" y="-17"/>
    </contour>
  </outline>
</glyph>
<glyph name="nine" format="2">
  <advance width="625"/>
  <unicode hex="0039"/>
  <outline>
    <contour>
      <point x="410" y="168" type="line" smooth="yes"/>
      <point x="524" y="293"/>
      <point x="567" y="378"/>
      <point x="567" y="484" type="curve" smooth="yes"/>
      <point x="567" y="621"/>
      <point x="457" y="717"/>
      <point x="321" y="717" type="curve" smooth="yes"/>
      <point x="172" y="717"/>
      <point x="58" y="612"/>
      <point x="58" y="474" type="curve" smooth="yes"/>
      <point x="58" y="338"/>
      <point x="158" y="247"/>
      <point x="293" y="247" type="curve" smooth="yes"/>
      <point x="352" y="247"/>
      <point x="409" y="267"/>
      <point x="454" y="304" type="curve"/>
      <point x="429" y="266"/>
      <point x="399" y="230"/>
      <point x="358" y="188" type="curve" smooth="yes"/>
      <point x="178" y="2" type="line"/>
      <point x="178" y="0" type="line"/>
      <point x="257" y="0" type="line"/>
    </contour>
    <contour>
      <point x="505" y="479" type="curve" smooth="yes"/>
      <point x="505" y="372"/>
      <point x="420" y="297"/>
      <point x="308" y="297" type="curve" smooth="yes"/>
      <point x="190" y="297"/>
      <point x="120" y="371"/>
      <point x="120" y="472" type="curve" smooth="yes"/>
      <point x="120" y="578"/>
      <point x="198" y="665"/>
      <point x="318" y="665" type="curve" smooth="yes"/>
      <point x="420" y="665"/>
      <point x="505" y="592"/>
    </contour>
  </outline>
</glyph>
<glyph name="semicolon" format="2">
  <advance width="242"/>
  <unicode hex="003B"/>
  <outline>
    <contour>
      <point x="162" y="476" type="line"/>
      <point x="80" y="476" type="line"/>
      <point x="80" y="392" type="line"/>
      <point x="162" y="392" type="line"/>
    </contour>
    <contour>
      <point x="36" y="-122" type="line"/>
      <point x="77" y="-122" type="line"/>
      <point x="177" y="84" type="line"/>
      <point x="103" y="84" type="line"/>
    </contour>
  </outline>
</glyph>
<glyph name="greater" format="2">
  <advance width="600"/>
  <unicode hex="003E"/>
  <outline>
    <contour>
      <point x="85" y="598" type="line"/>
      <point x="85" y="540" type="line"/>
      <point x="476" y="353" type="line"/>
      <point x="85" y="165" type="line"/>
      <point x="85" y="107" type="line"/>
      <point x="525" y="322" type="line"/>
      <point x="525" y="382" type="line"/>
    </contour>
  </outline>
</glyph>
<glyph name="E" format="2">
  <advance width="676"/>
  <unicode hex="0045"/>
  <anchor x="351" y="730" name="aboveUC"/>
  <anchor x="543" y="-10" name="belowogonek"/>
  <anchor x="351" y="-30" name="below"/>
  <outline>
    <contour>
      <point x="98" y="700" type="line"/>
      <point x="98" y="0" type="line"/>
      <point x="597" y="0" type="line"/>
      <point x="597" y="51" type="line"/>
      <point x="160" y="51" type="line"/>
      <point x="160" y="327" type="line"/>
      <point x="569" y="327" type="line"/>
      <point x="569" y="379" type="line"/>
      <point x="160" y="379" type="line"/>
      <point x="160" y="649" type="line"/>
      <point x="597" y="649" type="line"/>
      <point x="597" y="700" type="line"/>
    </contour>
  </outline>
</glyph>
<glyph name="H" format="2">
  <advance width="791"/>
  <unicode hex="0048"/>
  <anchor x="395" y="730" name="aboveUC"/>
  <anchor x="395" y="-30" name="below"/>
  <anchor x="127" y="-10" name="belowcedilla"/>
  <anchor x="395" y="4" name="belowx"/>
  <anchor x="395" y="696" name="aboveUCx"/>
  <outline>
    <contour>
      <point x="98" y="700" type="line"/>
      <point x="98" y="0" type="line"/>
      <point x="160" y="0" type="line"/>
      <point x="160" y="327" type="line"/>
      <point x="631" y="327" type="line"/>
      <point x="631" y="0" type="line"/>
      <point x="693" y="0" type="line"/>
      <point x="693" y="700" type="line"/>
      <point x="631" y="700" type="line"/>
      <point x="631" y="379" type="line"/>
      <point x="160" y="379" type="line"/>
      <point x="160" y="700" type="line"/>
    </contour>
  </outline>
</glyph>
<glyph name="I" format="2">
  <advance width="274"/>
  <unicode hex="0049"/>
  <anchor x="137" y="-30" name="below"/>
  <anchor x="137" y="-10" name="belowogonek"/>
  <anchor x="137" y="730" name="aboveUC"/>
  <anchor x="137" y="698" name="aboveUCx"/>
  <outline>
    <contour>
      <point x="106" y="700" type="line"/>
      <point x="106" y="0" type="line"/>
      <point x="168" y="0" type="line"/>
      <point x="168" y="700" type="line"/>
    </contour>
  </outline>
</glyph>
<glyph name="J" format="2">
  <advance width="605"/>
  <unicode hex="004A"/>
  <anchor x="485" y="730" name="aboveUC"/>
  <anchor x="485" y="698" name="aboveUCx"/>
  <outline>
    <contour>
      <point x="268" y="-17" type="curve" smooth="yes"/>
      <point x="440" y="-17"/>
      <point x="516" y="83"/>
      <point x="516" y="246" type="curve" smooth="yes"/>
      <point x="516" y="700" type="line"/>
      <point x="454" y="700" type="line"/>
      <point x="454" y="248" type="line" smooth="yes"/>
      <point x="454" y="97"/>
      <point x="386" y="34"/>
      <point x="271" y="34" type="curve" smooth="yes"/>
      <point x="169" y="34"/>
      <point x="105" y="102"/>
      <point x="99" y="241" type="curve"/>
      <point x="41" y="241" type="line"/>
      <point x="43" y="68"/>
      <point x="132" y="-17"/>
    </contour>
  </outline>
</glyph>
<glyph name="K" format="2">
  <advance width="690"/>
  <unicode hex="004B"/>
  <anchor x="366" y="-30" name="below"/>
  <anchor x="366" y="4" name="belowx"/>
  <outline>
    <contour>
      <point x="160" y="700" type="line"/>
      <point x="98" y="700" type="line"/>
      <point x="98" y="0" type="line"/>
      <point x="160" y="0" type="line"/>
      <point x="160" y="344" type="line"/>
      <point x="584" y="0" type="line"/>
      <point x="675" y="0" type="line"/>
      <point x="675" y="2" type="line"/>
      <point x="232" y="356" type="line"/>
      <point x="658" y="698" type="line"/>
      <point x="658" y="700" type="line"/>
      <point x="573" y="700" type="line"/>
      <point x="160" y="363" type="line"/>
    </contour>
  </outline>
</glyph>
<glyph name="O" format="2">
  <advance width="837"/>
  <unicode hex="004F"/>
  <anchor x="418" y="730" name="aboveUC"/>
  <anchor x="418" y="700" name="aboveUCx"/>
  <anchor x="419" y="-30" name="below"/>
  <anchor x="427" y="-10" name="belowogonek"/>
  <outline>
    <contour>
      <point x="770" y="351" type="curve" smooth="yes"/>
      <point x="770" y="558"/>
      <point x="619" y="717"/>
      <point x="419" y="717" type="curve" smooth="yes"/>
      <point x="222" y="717"/>
      <point x="67" y="556"/>
      <point x="67" y="349" type="curve" smooth="yes"/>
      <point x="67" y="142"/>
      <point x="218" y="-17"/>
      <point x="418" y="-17" type="curve" smooth="yes"/>
      <point x="615" y="-17"/>
      <point x="770" y="144"/>
    </contour>
    <contour>
      <point x="130" y="351" type="curve" smooth="yes"/>
      <point x="130" y="528"/>
      <point x="254" y="666"/>
      <point x="419" y="666" type="curve" smooth="yes"/>
      <point x="581" y="666"/>
      <point x="707" y="528"/>
      <point x="707" y="349" type="curve" smooth="yes"/>
      <point x="707" y="172"/>
      <point x="583" y="34"/>
      <point x="418" y="34" type="curve" smooth="yes"/>
      <point x="256" y="34"/>
      <point x="130" y="172"/>
    </contour>
  </outline>
</glyph>
<glyph name="P" format="2">
  <advance width="672"/>
  <unicode hex="0050"/>
  <anchor x="365" y="730" name="aboveUC"/>
  <outline>
    <contour>
      <point x="98" y="700" type="line"/>
      <point x="98" y="0" type="line"/>
      <point x="160" y="0" type="line"/>
      <point x="160" y="285" type="line"/>
      <point x="376" y="285" type="line" smooth="yes"/>
      <point x="534" y="285"/>
      <point x="633" y="369"/>
      <point x="633" y="495" type="curve" smooth="yes"/>
      <point x="633" y="617"/>
      <point x="546" y="700"/>
      <point x="393" y="700" type="curve" smooth="yes"/>
    </contour>
    <contour>
      <point x="390" y="649" type="line" smooth="yes"/>
      <point x="507" y="649"/>
      <point x="570" y="587"/>
      <point x="570" y="493" type="curve" smooth="yes"/>
      <point x="570" y="402"/>
      <point x="502" y="336"/>
      <point x="382" y="336" type="curve" smooth="yes"/>
      <point x="160" y="336" type="line"/>
      <point x="160" y="649" type="line"/>
    </contour>
  </outline>
</glyph>
<glyph name="Q" format="2">
  <advance width="837"/>
  <unicode hex="0051"/>
  <outline>
    <contour>
      <point x="385" y="-27" type="line" smooth="yes"/>
      <point x="385" y="-145"/>
      <point x="442" y="-190"/>
      <point x="549" y="-190" type="curve" smooth="yes"/>
      <point x="653" y="-190" type="line"/>
      <point x="653" y="-142" type="line"/>
      <point x="559" y="-142" type="line" smooth="yes"/>
      <point x="475" y="-142"/>
      <point x="444" y="-112"/>
      <point x="444" y="-22" type="curve" smooth="yes"/>
      <point x="444" y="-12" type="line"/>
      <point x="628" y="1"/>
      <point x="770" y="155"/>
      <point x="770" y="351" type="curve" smooth="yes"/>
      <point x="770" y="558"/>
      <point x="619" y="717"/>
      <point x="419" y="717" type="curve" smooth="yes"/>
      <point x="222" y="717"/>
      <point x="67" y="556"/>
      <point x="67" y="349" type="curve" smooth="yes"/>
      <point x="67" y="155"/>
      <point x="202" y="5"/>
      <point x="385" y="-12" type="curve"/>
    </contour>
    <contour>
      <point x="130" y="351" type="curve" smooth="yes"/>
      <point x="130" y="528"/>
      <point x="254" y="666"/>
      <point x="419" y="666" type="curve" smooth="yes"/>
      <point x="581" y="666"/>
      <point x="707" y="528"/>
      <point x="707" y="349" type="curve" smooth="yes"/>
      <point x="707" y="172"/>
      <point x="583" y="34"/>
      <point x="418" y="34" type="curve" smooth="yes"/>
      <point x="256" y="34"/>
      <point x="130" y="172"/>
    </contour>
  </outline>
</glyph>
<glyph name="S" format="2">
  <advance width="699"/>
  <unicode hex="0053"/>
  <guideline x="344" y="390" angle="354.25939336104807" identifier="ylsDMwWxaG"/>
  <anchor x="355" y="730" name="aboveUC"/>
  <anchor x="355" y="702" name="aboveUCx"/>
  <anchor x="368" y="-30" name="below"/>
  <anchor x="368" y="-10" name="belowcedilla"/>
  <outline>
    <contour>
      <point x="353" y="37" type="curve" smooth="yes"/>
      <point x="255" y="37"/>
      <point x="176" y="68"/>
      <point x="95" y="151" type="curve"/>
      <point x="55" y="109" type="line"/>
      <point x="134" y="25"/>
      <point x="225" y="-14"/>
      <point x="353" y="-14" type="curve" smooth="yes"/>
      <point x="533" y="-14"/>
      <point x="628" y="94"/>
      <point x="628" y="196" type="curve" smooth="yes"/>
      <point x="628" y="307"/>
      <point x="558" y="369"/>
      <point x="355" y="389" type="curve" smooth="yes"/>
      <point x="193" y="405"/>
      <point x="145" y="447"/>
      <point x="145" y="525" type="curve" smooth="yes"/>
      <point x="145" y="595"/>
      <point x="215" y="663"/>
      <point x="347" y="663" type="curve" smooth="yes"/>
      <point x="430" y="663"/>
      <point x="510" y="629"/>
      <point x="575" y="567" type="curve"/>
      <point x="613" y="611" type="line"/>
      <point x="543" y="677"/>
      <point x="459" y="714"/>
      <point x="347" y="714" type="curve" smooth="yes"/>
      <point x="177" y="714"/>
      <point x="85" y="614"/>
      <point x="85" y="523" type="curve" smooth="yes"/>
      <point x="85" y="414"/>
      <point x="151" y="352"/>
      <point x="342" y="333" type="curve" smooth="yes"/>
      <point x="516" y="316"/>
      <point x="568" y="274"/>
      <point x="568" y="194" type="curve" smooth="yes"/>
      <point x="568" y="112"/>
      <point x="495" y="37"/>
    </contour>
  </outline>
</glyph>
<glyph name="a" format="2">
  <advance width="529"/>
  <unicode hex="0061"/>
  <anchor x="254" y="-30" name="below"/>
  <anchor x="422" y="-10" name="belowogonek"/>
  <anchor x="261" y="506" name="aboveLC"/>
  <anchor x="261" y="476" name="aboveLCx"/>
  <outline>
    <contour>
      <point x="403" y="0" type="line"/>
      <point x="460" y="0" type="line"/>
      <point x="460" y="280" type="line" smooth="yes"/>
      <point x="460" y="417"/>
      <point x="384" y="491"/>
      <point x="269" y="491" type="curve" smooth="yes"/>
      <point x="188" y="491"/>
      <point x="129" y="462"/>
      <point x="77" y="411" type="curve"/>
      <point x="111" y="373" type="line"/>
      <point x="156" y="417"/>
      <point x="210" y="442"/>
      <point x="261" y="442" type="curve" smooth="yes"/>
      <point x="349" y="442"/>
      <point x="402" y="385"/>
      <point x="402" y="280" type="curve" smooth="yes"/>
      <point x="402" y="275" type="line"/>
      <point x="240" y="275" type="line" smooth="yes"/>
      <point x="110" y="275"/>
      <point x="38" y="217"/>
      <point x="38" y="126" type="curve" smooth="yes"/>
      <point x="38" y="43"/>
      <point x="110" y="-12"/>
      <point x="202" y="-12" type="curve" smooth="yes"/>
      <point x="290" y="-12"/>
      <point x="368" y="42"/>
      <point x="403" y="123" type="curve"/>
    </contour>
    <contour>
      <point x="241" y="229" type="curve" smooth="yes"/>
      <point x="402" y="229" type="line"/>
      <point x="396" y="115"/>
      <point x="306" y="35"/>
      <point x="209" y="35" type="curve" smooth="yes"/>
      <point x="140" y="35"/>
      <point x="97" y="76"/>
      <point x="97" y="128" type="curve" smooth="yes"/>
      <point x="97" y="187"/>
      <point x="138" y="229"/>
    </contour>
  </outline>
</glyph>
<glyph name="k" format="2">
  <advance width="492"/>
  <unicode hex="006B"/>
  <anchor x="271" y="-30" name="below"/>
  <anchor x="271" y="-5" name="belowx"/>
  <outline>
    <contour>
      <point x="138" y="730" type="line"/>
      <point x="79" y="730" type="line"/>
      <point x="79" y="0" type="line"/>
      <point x="138" y="0" type="line"/>
      <point x="138" y="238" type="line"/>
      <point x="393" y="0" type="line"/>
      <point x="474" y="0" type="line"/>
      <point x="474" y="2" type="line"/>
      <point x="200" y="253" type="line"/>
      <point x="473" y="474" type="line"/>
      <point x="473" y="476" type="line"/>
      <point x="394" y="476" type="line"/>
      <point x="138" y="265" type="line"/>
    </contour>
  </outline>
</glyph>
<glyph name="m" format="2">
  <advance width="923"/>
  <unicode hex="006D"/>
  <guideline x="666" y="243" angle="0.0" identifier="HmSkU0lQMG"/>
  <anchor x="464" y="506" name="aboveLC"/>
  <anchor x="464" y="-30" name="below"/>
  <outline>
    <contour>
      <point x="138" y="476" type="line"/>
      <point x="79" y="476" type="line"/>
      <point x="79" y="0" type="line"/>
      <point x="138" y="0" type="line"/>
      <point x="138" y="229" type="line" smooth="yes"/>
      <point x="138" y="351"/>
      <point x="203" y="440"/>
      <point x="299" y="440" type="curve" smooth="yes"/>
      <point x="388" y="440"/>
      <point x="433" y="378"/>
      <point x="433" y="288" type="curve" smooth="yes"/>
      <point x="433" y="0" type="line"/>
      <point x="492" y="0" type="line"/>
      <point x="492" y="229" type="line"/>
      <point x="492" y="351"/>
      <point x="557" y="440"/>
      <point x="653" y="440" type="curve" smooth="yes"/>
      <point x="742" y="440"/>
      <point x="787" y="378"/>
      <point x="787" y="288" type="curve" smooth="yes"/>
      <point x="787" y="0" type="line"/>
      <point x="846" y="0" type="line"/>
      <point x="846" y="289" type="line" smooth="yes"/>
      <point x="846" y="406"/>
      <point x="782" y="488"/>
      <point x="665" y="488" type="curve" smooth="yes"/>
      <point x="580" y="488"/>
      <point x="513" y="440"/>
      <point x="483" y="359" type="curve"/>
      <point x="462" y="438"/>
      <point x="403" y="488"/>
      <point x="311" y="488" type="curve" smooth="yes"/>
      <point x="232" y="488"/>
      <point x="169" y="443"/>
      <point x="138" y="367" type="curve"/>
    </contour>
  </outline>
</glyph>
<glyph name="n" format="2">
  <advance width="579"/>
  <unicode hex="006E"/>
  <guideline x="283" y="1080" angle="0.0" identifier="mq0bpEJOES"/>
  <anchor x="283" y="506" name="aboveLC"/>
  <anchor x="290" y="-30" name="below"/>
  <anchor x="290" y="0" name="belowx"/>
  <outline>
    <contour>
      <point x="138" y="476" type="line"/>
      <point x="79" y="476" type="line"/>
      <point x="79" y="0" type="line"/>
      <point x="138" y="0" type="line"/>
      <point x="138" y="229" type="line" smooth="yes"/>
      <point x="138" y="351"/>
      <point x="206" y="440"/>
      <point x="307" y="440" type="curve" smooth="yes"/>
      <point x="395" y="440"/>
      <point x="443" y="378"/>
      <point x="443" y="288" type="curve" smooth="yes"/>
      <point x="443" y="0" type="line"/>
      <point x="502" y="0" type="line"/>
      <point x="502" y="289" type="line" smooth="yes"/>
      <point x="502" y="406"/>
      <point x="435" y="488"/>
      <point x="319" y="488" type="curve" smooth="yes"/>
      <point x="236" y="488"/>
      <point x="170" y="442"/>
      <point x="138" y="367" type="curve"/>
    </contour>
  </outline>
</glyph>
<glyph name="q" format="2">
  <advance width="613"/>
  <unicode hex="0071"/>
  <outline>
    <contour>
      <point x="534" y="476" type="line"/>
      <point x="475" y="476" type="line"/>
      <point x="475" y="371" type="line"/>
      <point x="437" y="439"/>
      <point x="368" y="488"/>
      <point x="285" y="488" type="curve" smooth="yes"/>
      <point x="168" y="488"/>
      <point x="53" y="392"/>
      <point x="53" y="236" type="curve" smooth="yes"/>
      <point x="53" y="83"/>
      <point x="160" y="-12"/>
      <point x="277" y="-12" type="curve" smooth="yes"/>
      <point x="361" y="-12"/>
      <point x="436" y="37"/>
      <point x="475" y="111" type="curve"/>
      <point x="475" y="-210" type="line"/>
      <point x="534" y="-210" type="line"/>
    </contour>
    <contour>
      <point x="478" y="241" type="curve" smooth="yes"/>
      <point x="478" y="126"/>
      <point x="388" y="37"/>
      <point x="291" y="37" type="curve" smooth="yes"/>
      <point x="190" y="37"/>
      <point x="113" y="113"/>
      <point x="113" y="238" type="curve" smooth="yes"/>
      <point x="113" y="364"/>
      <point x="192" y="439"/>
      <point x="295" y="439" type="curve" smooth="yes"/>
      <point x="391" y="439"/>
      <point x="478" y="354"/>
    </contour>
  </outline>
</glyph>
<glyph name="u" format="2">
  <advance width="579"/>
  <unicode hex="0075"/>
  <anchor x="288" y="506" name="aboveLC"/>
  <anchor x="272" y="-30" name="below"/>
  <anchor x="455" y="-10" name="belowogonek"/>
  <anchor x="288" y="476" name="aboveLCx"/>
  <outline>
    <contour>
      <point x="441" y="0" type="line"/>
      <point x="500" y="0" type="line"/>
      <point x="500" y="476" type="line"/>
      <point x="441" y="476" type="line"/>
      <point x="441" y="247" type="line" smooth="yes"/>
      <point x="441" y="125"/>
      <point x="373" y="36"/>
      <point x="272" y="36" type="curve" smooth="yes"/>
      <point x="184" y="36"/>
      <point x="136" y="98"/>
      <point x="136" y="188" type="curve" smooth="yes"/>
      <point x="136" y="476" type="line"/>
      <point x="77" y="476" type="line"/>
      <point x="77" y="187" type="line" smooth="yes"/>
      <point x="77" y="70"/>
      <point x="144" y="-12"/>
      <point x="260" y="-12" type="curve" smooth="yes"/>
      <point x="343" y="-12"/>
      <point x="409" y="34"/>
      <point x="441" y="109" type="curve"/>
    </contour>
  </outline>
</glyph>
<glyph name="w" format="2">
  <advance width="770"/>
  <unicode hex="0077"/>
  <anchor x="385" y="506" name="aboveLC"/>
  <outline>
    <contour>
      <point x="604" y="0" type="line"/>
      <point x="735" y="476" type="line"/>
      <point x="677" y="476" type="line"/>
      <point x="568" y="57" type="line"/>
      <point x="421" y="476" type="line"/>
      <point x="352" y="476" type="line"/>
      <point x="204" y="52" type="line"/>
      <point x="94" y="476" type="line"/>
      <point x="35" y="476" type="line"/>
      <point x="165" y="0" type="line"/>
      <point x="234" y="0" type="line"/>
      <point x="385" y="421" type="line"/>
      <point x="535" y="0" type="line"/>
    </contour>
  </outline>
</glyph>
<glyph name="y" format="2">
  <advance width="518"/>
  <unicode hex="0079"/>
  <anchor x="258" y="506" name="aboveLC"/>
  <anchor x="405" y="-30" name="below"/>
  <anchor x="258" y="486" name="aboveLCx"/>
  <outline>
    <contour>
      <point x="29" y="476" type="line"/>
      <point x="232" y="-13" type="line"/>
      <point x="143" y="-210" type="line"/>
      <point x="204" y="-210" type="line"/>
      <point x="489" y="476" type="line"/>
      <point x="427" y="476" type="line"/>
      <point x="261" y="53" type="line"/>
      <point x="92" y="476" type="line"/>
    </contour>
  </outline>
</glyph>
<glyph name="z" format="2">
  <advance width="495"/>
  <unicode hex="007A"/>
  <anchor x="248" y="506" name="aboveLC"/>
  <anchor x="247" y="-30" name="below"/>
  <anchor x="247" y="-10" name="belowcedilla"/>
  <outline>
    <contour>
      <point x="44" y="0" type="line"/>
      <point x="451" y="0" type="line"/>
      <point x="451" y="47" type="line"/>
      <point x="112" y="47" type="line"/>
      <point x="438" y="422" type="line"/>
      <point x="438" y="476" type="line"/>
      <point x="56" y="476" type="line"/>
      <point x="56" y="429" type="line"/>
      <point x="373" y="429" type="line"/>
      <point x="44" y="53" type="line"/>
    </contour>
  </outline>
</glyph>
<glyph name="asciitilde" format="2">
  <advance width="600"/>
  <unicode hex="007E"/>
  <outline>
    <contour>
      <point x="552" y="414" type="curve"/>
      <point x="509" y="433" type="line"/>
      <point x="472" y="343"/>
      <point x="449" y="321"/>
      <point x="424" y="321" type="curve" smooth="yes"/>
      <point x="401" y="321"/>
      <point x="381" y="328"/>
      <point x="307" y="367" type="curve" smooth="yes"/>
      <point x="232" y="407"/>
      <point x="207" y="416"/>
      <point x="181" y="416" type="curve" smooth="yes"/>
      <point x="137" y="416"/>
      <point x="94" y="392"/>
      <point x="48" y="267" type="curve"/>
      <point x="91" y="248" type="line"/>
      <point x="128" y="338"/>
      <point x="152" y="360"/>
      <point x="176" y="360" type="curve" smooth="yes"/>
      <point x="199" y="360"/>
      <point x="219" y="353"/>
      <point x="293" y="314" type="curve" smooth="yes"/>
      <point x="368" y="274"/>
      <point x="394" y="265"/>
      <point x="419" y="265" type="curve" smooth="yes"/>
      <point x="463" y="265"/>
      <point x="506" y="290"/>
    </contour>
  </outline>
</glyph>
<glyph name="exclamdown" format="2">
  <advance width="242"/>
  <unicode hex="00A1"/>
  <outline>
    <contour>
      <point x="80" y="616" type="line"/>
      <point x="162" y="616" type="line"/>
      <point x="162" y="700" type="line"/>
      <point x="80" y="700" type="line"/>
    </contour>
    <contour>
      <point x="161" y="0" type="line"/>
      <point x="142" y="512" type="line"/>
      <point x="102" y="512" type="line"/>
      <point x="83" y="0" type="line"/>
    </contour>
  </outline>
</glyph>
<glyph name="yen" format="2">
  <advance width="663"/>
  <unicode hex="00A5"/>
  <outline>
    <contour>
      <point x="101" y="154" type="line"/>
      <point x="301" y="154" type="line"/>
      <point x="301" y="0" type="line"/>
      <point x="362" y="0" type="line"/>
      <point x="362" y="154" type="line"/>
      <point x="562" y="154" type="line"/>
      <point x="562" y="202" type="line"/>
      <point x="362" y="202" type="line"/>
      <point x="362" y="298" type="line"/>
      <point x="562" y="298" type="line"/>
      <point x="562" y="346" type="line"/>
      <point x="385" y="346" type="line"/>
      <point x="629" y="700" type="line"/>
      <point x="553" y="700" type="line"/>
      <point x="333" y="367" type="line"/>
      <point x="113" y="700" type="line"/>
      <point x="35" y="700" type="line"/>
      <point x="278" y="346" type="line"/>
      <point x="101" y="346" type="line"/>
      <point x="101" y="298" type="line"/>
      <point x="301" y="298" type="line"/>
      <point x="301" y="202" type="line"/>
      <point x="101" y="202" type="line"/>
    </contour>
  </outline>
</glyph>
<glyph name="guillemetleft" format="2">
  <advance width="481"/>
  <unicode hex="00AB"/>
  <outline>
    <contour>
      <point x="243" y="85" type="line"/>
      <point x="243" y="136" type="line"/>
      <point x="95" y="271" type="line"/>
      <point x="243" y="403" type="line"/>
      <point x="243" y="451" type="line"/>
      <point x="42" y="288" type="line"/>
      <point x="42" y="248" type="line"/>
    </contour>
    <contour>
      <point x="429" y="85" type="line"/>
      <point x="429" y="136" type="line"/>
      <point x="281" y="271" type="line"/>
      <point x="429" y="403" type="line"/>
      <point x="429" y="451" type="line"/>
      <point x="228" y="288" type="line"/>
      <point x="228" y="248" type="line"/>
    </contour>
  </outline>
</glyph>
<glyph name="two.sup" format="2">
  <advance width="371"/>
  <unicode hex="00B2"/>
  <outline>
    <contour>
      <point x="48" y="400" type="line"/>
      <point x="330" y="400" type="line"/>
      <point x="330" y="445" type="line"/>
      <point x="107" y="445" type="line"/>
      <point x="211" y="528" type="line" smooth="yes"/>
      <point x="294" y="595"/>
      <point x="319" y="627"/>
      <point x="319" y="681" type="curve" smooth="yes"/>
      <point x="319" y="750"/>
      <point x="263" y="800"/>
      <point x="189" y="800" type="curve" smooth="yes"/>
      <point x="102" y="800"/>
      <point x="44" y="742"/>
      <point x="42" y="650" type="curve"/>
      <point x="94" y="650" type="line"/>
      <point x="96" y="718"/>
      <point x="132" y="755"/>
      <point x="188" y="755" type="curve" smooth="yes"/>
      <point x="231" y="755"/>
      <point x="265" y="725"/>
      <point x="265" y="679" type="curve" smooth="yes"/>
      <point x="265" y="642"/>
      <point x="244" y="616"/>
      <point x="174" y="558" type="curve" smooth="yes"/>
      <point x="48" y="454" type="line"/>
    </contour>
  </outline>
</glyph>
<glyph name="germandbls" format="2">
  <advance width="594"/>
  <unicode hex="00DF"/>
  <guideline x="258" y="352" angle="90.0" identifier="IbSKKq8R0t"/>
  <outline>
    <contour>
      <point x="479" y="188" type="curve" smooth="yes"/>
      <point x="479" y="111"/>
      <point x="422" y="49"/>
      <point x="316" y="49" type="curve" smooth="yes"/>
      <point x="258" y="49" type="line"/>
      <point x="258" y="0" type="line"/>
      <point x="315" y="0" type="line" smooth="yes"/>
      <point x="464" y="0"/>
      <point x="539" y="82"/>
      <point x="539" y="189" type="curve" smooth="yes"/>
      <point x="539" y="286"/>
      <point x="460" y="366"/>
      <point x="317" y="395" type="curve"/>
      <point x="454" y="431"/>
      <point x="500" y="499"/>
      <point x="500" y="576" type="curve" smooth="yes"/>
      <point x="500" y="670"/>
      <point x="424" y="740"/>
      <point x="305" y="740" type="curve" smooth="yes"/>
      <point x="180" y="740"/>
      <point x="79" y="655"/>
      <point x="79" y="501" type="curve" smooth="yes"/>
      <point x="79" y="0" type="line"/>
      <point x="138" y="0" type="line"/>
      <point x="138" y="499" type="line" smooth="yes"/>
      <point x="138" y="631"/>
      <point x="214" y="691"/>
      <point x="304" y="691" type="curve" smooth="yes"/>
      <point x="388" y="691"/>
      <point x="440" y="643"/>
      <point x="440" y="576" type="curve" smooth="yes"/>
      <point x="440" y="515"/>
      <point x="401" y="446"/>
      <point x="258" y="415" type="curve"/>
      <point x="258" y="369" type="line"/>
      <point x="410" y="338"/>
      <point x="479" y="272"/>
    </contour>
  </outline>
</glyph>
<glyph name="eth" format="2">
  <advance width="593"/>
  <unicode hex="00F0"/>
  <guideline x="195" y="741" angle="0.0" identifier="G57mRtmwhU"/>
  <outline>
    <contour>
      <point x="407" y="747" type="line"/>
      <point x="333" y="677" type="line"/>
      <point x="292" y="703"/>
      <point x="246" y="724"/>
      <point x="195" y="741" type="curve"/>
      <point x="176" y="697" type="line"/>
      <point x="219" y="683"/>
      <point x="259" y="664"/>
      <point x="295" y="642" type="curve"/>
      <point x="226" y="577" type="line"/>
      <point x="259" y="545" type="line"/>
      <point x="333" y="615" type="line"/>
      <point x="415" y="551"/>
      <point x="472" y="460"/>
      <point x="491" y="339" type="curve"/>
      <point x="461" y="417"/>
      <point x="391" y="479"/>
      <point x="283" y="479" type="curve" smooth="yes"/>
      <point x="154" y="479"/>
      <point x="53" y="371"/>
      <point x="53" y="231" type="curve" smooth="yes"/>
      <point x="53" y="91"/>
      <point x="158" y="-17"/>
      <point x="295" y="-17" type="curve" smooth="yes"/>
      <point x="365" y="-17"/>
      <point x="423" y="16"/>
      <point x="463" y="56" type="curve" smooth="yes"/>
      <point x="509" y="102"/>
      <point x="540" y="173"/>
      <point x="540" y="296" type="curve" smooth="yes"/>
      <point x="540" y="440"/>
      <point x="481" y="564"/>
      <point x="371" y="650" type="curve"/>
      <point x="440" y="715" type="line"/>
    </contour>
    <contour>
      <point x="113" y="230" type="curve" smooth="yes"/>
      <point x="113" y="342"/>
      <point x="193" y="429"/>
      <point x="296" y="429" type="curve" smooth="yes"/>
      <point x="398" y="429"/>
      <point x="478" y="344"/>
      <point x="478" y="240" type="curve"/>
      <point x="478" y="185"/>
      <point x="457" y="125"/>
      <point x="419" y="87" type="curve" smooth="yes"/>
      <point x="385" y="53"/>
      <point x="349" y="33"/>
      <point x="297" y="33" type="curve" smooth="yes"/>
      <point x="193" y="33"/>
      <point x="113" y="121"/>
    </contour>
  </outline>
</glyph>
<glyph name="divide" format="2">
  <advance width="600"/>
  <unicode hex="00F7"/>
  <outline>
    <contour>
      <point x="342" y="569" type="line"/>
      <point x="260" y="569" type="line"/>
      <point x="260" y="482" type="line"/>
      <point x="342" y="482" type="line"/>
    </contour>
    <contour>
      <point x="64" y="329" type="line"/>
      <point x="537" y="329" type="line"/>
      <point x="537" y="377" type="line"/>
      <point x="64" y="377" type="line"/>
    </contour>
    <contour>
      <point x="342" y="224" type="line"/>
      <point x="260" y="224" type="line"/>
      <point x="260" y="137" type="line"/>
      <point x="342" y="137" type="line"/>
    </contour>
  </outline>
</glyph>
<glyph name="dotlessi" format="2">
  <advance width="227"/>
  <unicode hex="0131"/>
  <anchor x="113" y="-30" name="below"/>
  <anchor x="113" y="506" name="aboveLC"/>
  <anchor x="113" y="474" name="aboveLCx"/>
  <anchor x="113" y="-10" name="belowogonek"/>
  <outline>
    <contour>
      <point x="84" y="476" type="line"/>
      <point x="84" y="0" type="line"/>
      <point x="143" y="0" type="line"/>
      <point x="143" y="476" type="line"/>
    </contour>
  </outline>
</glyph>
<glyph name="circumflexcmb" format="2">
  <unicode hex="0302"/>
  <anchor x="0" y="506" name="_aboveLC"/>
  <anchor x="0" y="486" name="_aboveLCx"/>
  <outline>
    <contour>
      <point x="-130" y="573" type="line"/>
      <point x="-106" y="544" type="line"/>
      <point x="0" y="617" type="line"/>
      <point x="106" y="544" type="line"/>
      <point x="130" y="573" type="line"/>
      <point x="17" y="669" type="line"/>
      <point x="-17" y="669" type="line"/>
    </contour>
  </outline>
</glyph>
<glyph name="comma-ar" format="2">
  <advance width="223"/>
  <unicode hex="060C"/>
  <outline>
    <contour>
      <point x="176" y="199" type="line"/>
      <point x="135" y="199" type="line"/>
      <point x="35" y="-7" type="line"/>
      <point x="109" y="-7" type="line"/>
    </contour>
  </outline>
</glyph>
<glyph name="seen-ar" format="2">
  <advance width="1140"/>
  <unicode hex="0633"/>
  <anchor x="779" y="370" name="top"/>
  <anchor x="779" y="0" name="bottom"/>
  <outline>
    <contour>
      <point x="30" y="310" type="line"/>
      <point x="30" y="100" type="line" smooth="yes"/>
      <point x="30" y="-83"/>
      <point x="122" y="-180"/>
      <point x="298" y="-180" type="curve" smooth="yes"/>
      <point x="439" y="-180"/>
      <point x="526" y="-118"/>
      <point x="555" y="0" type="curve"/>
      <point x="1050" y="0" type="line"/>
      <point x="1050" y="450" type="line"/>
      <point x="992" y="450" type="line"/>
      <point x="992" y="54" type="line"/>
      <point x="808" y="54" type="line"/>
      <point x="808" y="370" type="line"/>
      <point x="750" y="370" type="line"/>
      <point x="750" y="54" type="line"/>
      <point x="564" y="54" type="line"/>
      <point x="565" y="69"/>
      <point x="566" y="84"/>
      <point x="566" y="100" type="curve" smooth="yes"/>
      <point x="566" y="450" type="line"/>
      <point x="508" y="450" type="line"/>
      <point x="508" y="100" type="line" smooth="yes"/>
      <point x="508" y="-54"/>
      <point x="443" y="-126"/>
      <point x="298" y="-126" type="curve" smooth="yes"/>
      <point x="153" y="-126"/>
      <point x="88" y="-54"/>
      <point x="88" y="100" type="curve" smooth="yes"/>
      <point x="88" y="310" type="line"/>
    </contour>
  </outline>
</glyph>
<glyph name="kashida-ar" format="2">
  <advance width="90"/>
  <unicode hex="0640"/>
  <anchor x="45" y="476" name="top"/>
  <anchor x="45" y="0" name="bottom"/>
  <outline>
    <contour>
      <point x="90" y="54" type="line"/>
      <point x="0" y="54" type="line" smooth="yes"/>
      <point x="-14" y="54"/>
      <point x="-25" y="52"/>
      <point x="-25" y="25" type="curve" smooth="yes"/>
      <point x="-25" y="1"/>
      <point x="-14" y="0"/>
      <point x="0" y="0" type="curve" smooth="yes"/>
      <point x="90" y="0" type="line"/>
    </contour>
  </outline>
</glyph>
<glyph name="heh-ar" format="2">
  <advance width="502"/>
  <unicode hex="0647"/>
  <anchor x="247" y="456" name="top"/>
  <anchor x="247" y="-19" name="bottom"/>
  <outline>
    <contour>
      <point x="247" y="-19" type="curve" smooth="yes"/>
      <point x="382" y="-19"/>
      <point x="462" y="73"/>
      <point x="462" y="219" type="curve" smooth="yes"/>
      <point x="462" y="365"/>
      <point x="382" y="456"/>
      <point x="247" y="456" type="curve" smooth="yes"/>
      <point x="111" y="456"/>
      <point x="30" y="365"/>
      <point x="30" y="219" type="curve" smooth="yes"/>
      <point x="30" y="73"/>
      <point x="111" y="-19"/>
    </contour>
    <contour>
      <point x="247" y="35" type="curve" smooth="yes"/>
      <point x="142" y="35"/>
      <point x="88" y="107"/>
      <point x="88" y="219" type="curve" smooth="yes"/>
      <point x="88" y="330"/>
      <point x="142" y="402"/>
      <point x="247" y="402" type="curve" smooth="yes"/>
      <point x="351" y="402"/>
      <point x="404" y="330"/>
      <point x="404" y="219" type="curve" smooth="yes"/>
      <point x="404" y="107"/>
      <point x="351" y="35"/>
    </contour>
  </outline>
</glyph>
<glyph name="fatha-ar" format="2">
  <unicode hex="064E"/>
  <anchor x="149" y="625" name="top"/>
  <anchor x="149" y="535" name="_top"/>
  <outline>
    <contour>
      <point x="278" y="687" type="line"/>
      <point x="20" y="687" type="line"/>
      <point x="20" y="647" type="line"/>
      <point x="278" y="647" type="line"/>
    </contour>
  </outline>
</glyph>
<glyph name="kasra-ar" format="2">
  <unicode hex="0650"/>
  <anchor x="149" y="0" name="_bottom"/>
  <anchor x="149" y="-90" name="bottom"/>
  <outline>
    <contour>
      <point x="278" y="-104" type="line"/>
      <point x="20" y="-104" type="line"/>
      <point x="20" y="-144" type="line"/>
      <point x="278" y="-144" type="line"/>
    </contour>
  </outline>
</glyph>
<glyph name="shadda-ar" format="2">
  <unicode hex="0651"/>
  <anchor x="168" y="749" name="top"/>
  <anchor x="168" y="535" name="_top"/>
  <outline>
    <contour>
      <point x="316" y="727" type="curve" smooth="yes"/>
      <point x="316" y="809" type="line"/>
      <point x="276" y="809" type="line"/>
      <point x="276" y="727" type="line" smooth="yes"/>
      <point x="276" y="699"/>
      <point x="263" y="687"/>
      <point x="232" y="687" type="curve" smooth="yes"/>
      <point x="203" y="687"/>
      <point x="188" y="701"/>
      <point x="188" y="732" type="curve" smooth="yes"/>
      <point x="188" y="789" type="line"/>
      <point x="148" y="789" type="line"/>
      <point x="148" y="727" type="line" smooth="yes"/>
      <point x="148" y="699"/>
      <point x="135" y="687"/>
      <point x="104" y="687" type="curve" smooth="yes"/>
      <point x="75" y="687"/>
      <point x="60" y="701"/>
      <point x="60" y="732" type="curve" smooth="yes"/>
      <point x="60" y="809" type="line"/>
      <point x="20" y="809" type="line"/>
      <point x="20" y="732" type="line" smooth="yes"/>
      <point x="20" y="680"/>
      <point x="52" y="647"/>
      <point x="104" y="647" type="curve" smooth="yes"/>
      <point x="133" y="647"/>
      <point x="155" y="656"/>
      <point x="169" y="671" type="curve"/>
      <point x="184" y="656"/>
      <point x="206" y="647"/>
      <point x="232" y="647" type="curve" smooth="yes"/>
      <point x="285" y="647"/>
      <point x="316" y="676"/>
    </contour>
  </outline>
</glyph>
<glyph name="madda-ar" format="2">
  <unicode hex="0653"/>
  <anchor x="220" y="719" name="top"/>
  <anchor x="206" y="535" name="_top"/>
  <outline>
    <contour>
      <point x="355" y="689" type="line"/>
      <point x="337" y="676"/>
      <point x="321" y="671"/>
      <point x="305" y="671" type="curve" smooth="yes"/>
      <point x="284" y="671"/>
      <point x="263" y="681"/>
      <point x="236" y="695" type="curve" smooth="yes"/>
      <point x="210" y="708"/>
      <point x="179" y="726"/>
      <point x="143" y="726" type="curve" smooth="yes"/>
      <point x="103" y="726"/>
      <point x="70" y="704"/>
      <point x="52" y="671" type="curve"/>
      <point x="91" y="644" type="line"/>
      <point x="101" y="664"/>
      <point x="121" y="676"/>
      <point x="143" y="676" type="curve" smooth="yes"/>
      <point x="160" y="676"/>
      <point x="175" y="670"/>
      <point x="210" y="652" type="curve" smooth="yes"/>
      <point x="236" y="638"/>
      <point x="268" y="622"/>
      <point x="304" y="622" type="curve" smooth="yes"/>
      <point x="329" y="622"/>
      <point x="356" y="630"/>
      <point x="385" y="652" type="curve"/>
    </contour>
  </outline>
</glyph>
<glyph name="alefbelow-ar" format="2">
  <unicode hex="0656"/>
  <anchor x="45" y="0" name="_bottom"/>
  <anchor x="45" y="-263" name="bottom"/>
  <outline>
    <contour>
      <point x="20" y="-266" type="line"/>
      <point x="70" y="-266" type="line"/>
      <point x="70" y="-65" type="line"/>
      <point x="20" y="-65" type="line"/>
    </contour>
  </outline>
</glyph>
<glyph name="zero-ar" format="2">
  <advance width="264"/>
  <unicode hex="0660"/>
  <outline>
    <contour>
      <point x="132" y="281" type="line"/>
      <point x="70" y="220" type="line"/>
      <point x="132" y="158" type="line"/>
      <point x="194" y="219" type="line"/>
    </contour>
  </outline>
</glyph>
<glyph name="one-ar" format="2">
  <advance width="278"/>
  <unicode hex="0661"/>
  <outline>
    <contour>
      <point x="110" y="627" type="line"/>
      <point x="110" y="0" type="line"/>
      <point x="168" y="0" type="line"/>
      <point x="168" y="627" type="line"/>
    </contour>
  </outline>
</glyph>
<glyph name="two-ar" format="2">
  <advance width="546"/>
  <unicode hex="0662"/>
  <outline>
    <contour>
      <point x="110" y="0" type="line"/>
      <point x="168" y="0" type="line"/>
      <point x="168" y="367" type="line"/>
      <point x="347" y="367" type="line" smooth="yes"/>
      <point x="453" y="367"/>
      <point x="506" y="420"/>
      <point x="506" y="525" type="curve" smooth="yes"/>
      <point x="506" y="627" type="line"/>
      <point x="448" y="627" type="line"/>
      <point x="448" y="525" type="line" smooth="yes"/>
      <point x="448" y="451"/>
      <point x="422" y="421"/>
      <point x="347" y="421" type="curve" smooth="yes"/>
      <point x="168" y="421" type="line"/>
      <point x="168" y="627" type="line"/>
      <point x="110" y="627" type="line"/>
    </contour>
  </outline>
</glyph>
<glyph name="three-ar" format="2">
  <advance width="586"/>
  <unicode hex="0663"/>
  <outline>
    <contour>
      <point x="110" y="0" type="line"/>
      <point x="168" y="0" type="line"/>
      <point x="168" y="367" type="line"/>
      <point x="387" y="367" type="line" smooth="yes"/>
      <point x="493" y="367"/>
      <point x="546" y="420"/>
      <point x="546" y="525" type="curve" smooth="yes"/>
      <point x="546" y="627" type="line"/>
      <point x="488" y="627" type="line"/>
      <point x="488" y="525" type="line" smooth="yes"/>
      <point x="488" y="451"/>
      <point x="462" y="421"/>
      <point x="387" y="421" type="curve" smooth="yes"/>
      <point x="358" y="421" type="line"/>
      <point x="358" y="575" type="line"/>
      <point x="300" y="575" type="line"/>
      <point x="300" y="421" type="line"/>
      <point x="168" y="421" type="line"/>
      <point x="168" y="627" type="line"/>
      <point x="110" y="627" type="line"/>
    </contour>
  </outline>
</glyph>
<glyph name="five-ar" format="2">
  <advance width="566"/>
  <unicode hex="0665"/>
  <outline>
    <contour>
      <point x="283" y="522" type="curve" smooth="yes"/>
      <point x="155" y="522"/>
      <point x="70" y="408"/>
      <point x="70" y="219" type="curve" smooth="yes"/>
      <point x="70" y="77"/>
      <point x="152" y="-2"/>
      <point x="283" y="-2" type="curve" smooth="yes"/>
      <point x="414" y="-2"/>
      <point x="496" y="77"/>
      <point x="496" y="219" type="curve" smooth="yes"/>
      <point x="496" y="408"/>
      <point x="411" y="522"/>
    </contour>
    <contour>
      <point x="283" y="468" type="curve" smooth="yes"/>
      <point x="375" y="468"/>
      <point x="438" y="378"/>
      <point x="438" y="219" type="curve" smooth="yes"/>
      <point x="438" y="107"/>
      <point x="382" y="52"/>
      <point x="283" y="52" type="curve" smooth="yes"/>
      <point x="184" y="52"/>
      <point x="128" y="107"/>
      <point x="128" y="219" type="curve" smooth="yes"/>
      <point x="128" y="378"/>
      <point x="191" y="468"/>
    </contour>
  </outline>
</glyph>
<glyph name="alefabove-ar" format="2">
  <unicode hex="0670"/>
  <anchor x="45" y="780" name="top"/>
  <anchor x="45" y="536" name="_top"/>
  <outline>
    <contour>
      <point x="20" y="607" type="line"/>
      <point x="70" y="607" type="line"/>
      <point x="70" y="808" type="line"/>
      <point x="20" y="808" type="line"/>
    </contour>
  </outline>
</glyph>
<glyph name="uni1E9E" format="2">
  <advance width="758"/>
  <unicode hex="1E9E"/>
  <outline>
    <contour>
      <point x="366" y="326" type="line"/>
      <point x="409" y="323" type="line" smooth="yes"/>
      <point x="578" y="311"/>
      <point x="638" y="253"/>
      <point x="638" y="180" type="curve" smooth="yes"/>
      <point x="638" y="102"/>
      <point x="576" y="37"/>
      <point x="475" y="37" type="curve" smooth="yes"/>
      <point x="410" y="37"/>
      <point x="369" y="58"/>
      <point x="322" y="90" type="curve"/>
      <point x="292" y="45" type="line"/>
      <point x="335" y="14"/>
      <point x="392" y="-14"/>
      <point x="474" y="-14" type="curve" smooth="yes"/>
      <point x="604" y="-14"/>
      <point x="701" y="67"/>
      <point x="701" y="186" type="curve" smooth="yes"/>
      <point x="701" y="287"/>
      <point x="610" y="356"/>
      <point x="435" y="368" type="curve"/>
      <point x="662" y="548" type="line"/>
      <point x="662" y="583" type="line"/>
      <point x="609" y="666"/>
      <point x="513" y="717"/>
      <point x="402" y="717" type="curve" smooth="yes"/>
      <point x="203" y="717"/>
      <point x="88" y="591"/>
      <point x="88" y="396" type="curve" smooth="yes"/>
      <point x="88" y="0" type="line"/>
      <point x="149" y="0" type="line"/>
      <point x="149" y="394" type="line" smooth="yes"/>
      <point x="149" y="559"/>
      <point x="238" y="666"/>
      <point x="401" y="666" type="curve" smooth="yes"/>
      <point x="488" y="666"/>
      <point x="558" y="632"/>
      <point x="605" y="570" type="curve"/>
      <point x="366" y="376" type="line"/>
    </contour>
  </outline>
</glyph>
<glyph name="quotedblleft" format="2">
  <advance width="384"/>
  <unicode hex="201C"/>
  <outline>
    <contour>
      <point x="178" y="700" type="line"/>
      <point x="137" y="700" type="line"/>
      <point x="37" y="499" type="line"/>
      <point x="111" y="499" type="line"/>
    </contour>
    <contour>
      <point x="332" y="700" type="line"/>
      <point x="291" y="700" type="line"/>
      <point x="191" y="499" type="line"/>
      <point x="266" y="499" type="line"/>
    </contour>
  </outline>
</glyph>
<glyph name="quotedblright" format="2">
  <advance width="384"/>
  <unicode hex="201D"/>
  <outline>
    <contour>
      <point x="206" y="499" type="line"/>
      <point x="247" y="499" type="line"/>
      <point x="347" y="700" type="line"/>
      <point x="272" y="700" type="line"/>
    </contour>
    <contour>
      <point x="52" y="499" type="line"/>
      <point x="92" y="499" type="line"/>
      <point x="193" y="700" type="line"/>
      <point x="118" y="700" type="line"/>
    </contour>
  </outline>
</glyph>
<glyph name="naira" format="2">
  <advance width="802"/>
  <unicode hex="20A6"/>
  <outline>
    <contour>
      <point x="192" y="0" type="line"/>
      <point x="192" y="262" type="line"/>
      <point x="423" y="262" type="line"/>
      <point x="575" y="0" type="line"/>
      <point x="670" y="0" type="line"/>
      <point x="670" y="258" type="line"/>
      <point x="769" y="258" type="line"/>
      <point x="769" y="306" type="line"/>
      <point x="670" y="306" type="line"/>
      <point x="670" y="400" type="line"/>
      <point x="769" y="400" type="line"/>
      <point x="769" y="448" type="line"/>
      <point x="670" y="448" type="line"/>
      <point x="670" y="700" type="line"/>
      <point x="610" y="700" type="line"/>
      <point x="610" y="444" type="line"/>
      <point x="378" y="444" type="line"/>
      <point x="230" y="700" type="line"/>
      <point x="132" y="700" type="line"/>
      <point x="132" y="448" type="line"/>
      <point x="33" y="448" type="line"/>
      <point x="33" y="400" type="line"/>
      <point x="132" y="400" type="line"/>
      <point x="132" y="306" type="line"/>
      <point x="33" y="306" type="line"/>
      <point x="33" y="258" type="line"/>
      <point x="132" y="258" type="line"/>
      <point x="132" y="0" type="line"/>
    </contour>
    <contour>
      <point x="192" y="444" type="line"/>
      <point x="192" y="661" type="line"/>
      <point x="318" y="444" type="line"/>
    </contour>
    <contour>
      <point x="460" y="302" type="line"/>
      <point x="401" y="404" type="line"/>
      <point x="610" y="404" type="line"/>
      <point x="610" y="302" type="line"/>
    </contour>
    <contour>
      <point x="192" y="302" type="line"/>
      <point x="192" y="404" type="line"/>
      <point x="341" y="404" type="line"/>
      <point x="400" y="302" type="line"/>
    </contour>
    <contour>
      <point x="483" y="262" type="line"/>
      <point x="610" y="262" type="line"/>
      <point x="610" y="43" type="line"/>
    </contour>
  </outline>
</glyph>
<glyph name="uni20BA" format="2">
  <advance width="657"/>
  <unicode hex="20BA"/>
  <outline>
    <contour>
      <point x="33" y="131" type="line"/>
      <point x="132" y="185" type="line"/>
      <point x="132" y="0" type="line"/>
      <point x="305" y="0" type="line" smooth="yes"/>
      <point x="489" y="0"/>
      <point x="610" y="103"/>
      <point x="617" y="293" type="curve"/>
      <point x="557" y="293" type="line"/>
      <point x="547" y="129"/>
      <point x="451" y="51"/>
      <point x="303" y="51" type="curve" smooth="yes"/>
      <point x="194" y="51" type="line"/>
      <point x="194" y="219" type="line"/>
      <point x="494" y="384" type="line"/>
      <point x="494" y="440" type="line"/>
      <point x="194" y="275" type="line"/>
      <point x="194" y="370" type="line"/>
      <point x="494" y="535" type="line"/>
      <point x="494" y="591" type="line"/>
      <point x="194" y="426" type="line"/>
      <point x="194" y="700" type="line"/>
      <point x="132" y="700" type="line"/>
      <point x="132" y="392" type="line"/>
      <point x="33" y="337" type="line"/>
      <point x="33" y="281" type="line"/>
      <point x="132" y="336" type="line"/>
      <point x="132" y="241" type="line"/>
      <point x="33" y="186" type="line"/>
    </contour>
  </outline>
</glyph>
<glyph name="minus" format="2">
  <advance width="600"/>
  <unicode hex="2212"/>
  <outline>
    <contour>
      <point x="64" y="329" type="line"/>
      <point x="537" y="329" type="line"/>
      <point x="537" y="377" type="line"/>
      <point x="64" y="377" type="line"/>
    </contour>
  </outline>
</glyph>
<glyph name="notequal" format="2">
  <advance width="600"/>
  <unicode hex="2260"/>
  <outline>
    <contour>
      <point x="64" y="243" type="line"/>
      <point x="183" y="243" type="line"/>
      <point x="98" y="136" type="line"/>
      <point x="160" y="136" type="line"/>
      <point x="243" y="243" type="line"/>
      <point x="537" y="243" type="line"/>
      <point x="537" y="291" type="line"/>
      <point x="280" y="291" type="line"/>
      <point x="330" y="356" type="line"/>
      <point x="377" y="415" type="line"/>
      <point x="537" y="415" type="line"/>
      <point x="537" y="463" type="line"/>
      <point x="416" y="463" type="line"/>
      <point x="502" y="570" type="line"/>
      <point x="440" y="570" type="line"/>
      <point x="357" y="463" type="line"/>
      <point x="64" y="463" type="line"/>
      <point x="64" y="415" type="line"/>
      <point x="319" y="415" type="line"/>
      <point x="274" y="357" type="line"/>
      <point x="221" y="291" type="line"/>
      <point x="64" y="291" type="line"/>
    </contour>
  </outline>
</glyph>
<glyph name="hehDoachashmee-ar.fina" format="2">
  <advance width="736"/>
  <unicode hex="FBAB"/>
  <anchor x="440" y="460" name="top"/>
  <anchor x="454" y="-288" name="bottom"/>
  <outline>
    <contour>
      <point x="151" y="0" type="curve" smooth="yes"/>
      <point x="228" y="0" type="line"/>
      <point x="228" y="-60" type="line" smooth="yes"/>
      <point x="228" y="-206"/>
      <point x="309" y="-288"/>
      <point x="454" y="-288" type="curve" smooth="yes"/>
      <point x="573" y="-288"/>
      <point x="647" y="-226"/>
      <point x="647" y="-123" type="curve" smooth="yes"/>
      <point x="647" y="-85"/>
      <point x="630" y="-34"/>
      <point x="598" y="0" type="curve"/>
      <point x="736" y="0" type="line"/>
      <point x="736" y="54" type="line"/>
      <point x="578" y="54" type="line"/>
      <point x="622" y="106"/>
      <point x="647" y="175"/>
      <point x="647" y="241" type="curve" smooth="yes"/>
      <point x="647" y="369"/>
      <point x="561" y="460"/>
      <point x="440" y="460" type="curve" smooth="yes"/>
      <point x="308" y="460"/>
      <point x="228" y="365"/>
      <point x="228" y="210" type="curve" smooth="yes"/>
      <point x="228" y="54" type="line"/>
      <point x="151" y="54" type="line" smooth="yes"/>
      <point x="66" y="54"/>
      <point x="20" y="7"/>
      <point x="20" y="-83" type="curve"/>
      <point x="76" y="-83" type="line"/>
      <point x="76" y="-23"/>
      <point x="97" y="0"/>
    </contour>
    <contour>
      <point x="286" y="54" type="line"/>
      <point x="286" y="210" type="line" smooth="yes"/>
      <point x="286" y="335"/>
      <point x="340" y="406"/>
      <point x="440" y="406" type="curve" smooth="yes"/>
      <point x="530" y="406"/>
      <point x="589" y="338"/>
      <point x="589" y="241" type="curve" smooth="yes"/>
      <point x="589" y="175"/>
      <point x="561" y="105"/>
      <point x="498" y="54" type="curve"/>
    </contour>
    <contour>
      <point x="454" y="-234" type="curve" smooth="yes"/>
      <point x="340" y="-234"/>
      <point x="286" y="-175"/>
      <point x="286" y="-60" type="curve" smooth="yes"/>
      <point x="286" y="0" type="line"/>
      <point x="514" y="0" type="line"/>
      <point x="555" y="-24"/>
      <point x="589" y="-73"/>
      <point x="589" y="-123" type="curve" smooth="yes"/>
      <point x="589" y="-193"/>
      <point x="543" y="-234"/>
    </contour>
  </outline>
</glyph>
<glyph name="alef-ar.fina" format="2">
  <advance width="302"/>
  <unicode hex="FE8E"/>
  <anchor x="119" y="690" name="top"/>
  <anchor x="119" y="0" name="bottom"/>
  <outline>
    <contour>
      <point x="299" y="0" type="curve" smooth="yes"/>
      <point x="302" y="0" type="line"/>
      <point x="302" y="54" type="line"/>
      <point x="299" y="54" type="line" smooth="yes"/>
      <point x="201" y="54"/>
      <point x="148" y="86"/>
      <point x="148" y="214" type="curve" smooth="yes"/>
      <point x="148" y="730" type="line"/>
      <point x="90" y="730" type="line"/>
      <point x="90" y="214" type="line" smooth="yes"/>
      <point x="90" y="56"/>
      <point x="168" y="0"/>
    </contour>
  </outline>
</glyph>
<glyph name="dal-ar.fina" format="2">
  <advance width="566"/>
  <unicode hex="FEAA"/>
  <anchor x="233" y="450" name="top"/>
  <anchor x="243" y="0" name="bottom"/>
  <outline>
    <contour>
      <point x="476" y="54" type="line"/>
      <point x="476" y="210" type="line" smooth="yes"/>
      <point x="476" y="367"/>
      <point x="381" y="450"/>
      <point x="202" y="450" type="curve" smooth="yes"/>
      <point x="100" y="450" type="line"/>
      <point x="100" y="396" type="line"/>
      <point x="202" y="396" type="line" smooth="yes"/>
      <point x="350" y="396"/>
      <point x="418" y="335"/>
      <point x="418" y="210" type="curve" smooth="yes"/>
      <point x="418" y="54" type="line"/>
      <point x="30" y="54" type="line"/>
      <point x="30" y="0" type="line"/>
      <point x="566" y="0" type="line"/>
      <point x="566" y="54" type="line"/>
    </contour>
  </outline>
</glyph>
<glyph name="reh-ar.fina" format="2">
  <advance width="350"/>
  <unicode hex="FEAE"/>
  <anchor x="202" y="450" name="top"/>
  <anchor x="102" y="-180" name="bottom"/>
  <outline>
    <contour>
      <point x="-20" y="-180" type="line"/>
      <point x="22" y="-180" type="line" smooth="yes"/>
      <point x="142" y="-180"/>
      <point x="218" y="-132"/>
      <point x="229" y="0" type="curve"/>
      <point x="350" y="0" type="line"/>
      <point x="350" y="54" type="line"/>
      <point x="230" y="54" type="line"/>
      <point x="230" y="450" type="line"/>
      <point x="172" y="450" type="line"/>
      <point x="172" y="34" type="line" smooth="yes"/>
      <point x="172" y="-92"/>
      <point x="121" y="-126"/>
      <point x="22" y="-126" type="curve" smooth="yes"/>
      <point x="-20" y="-126" type="line"/>
    </contour>
  </outline>
</glyph>
<glyph name="tah-ar.fina" format="2">
  <advance width="846"/>
  <unicode hex="FEC2"/>
  <anchor x="433" y="450" name="top"/>
  <anchor x="432" y="0" name="bottom"/>
  <outline>
    <contour>
      <point x="756" y="54" type="line"/>
      <point x="756" y="210" type="line" smooth="yes"/>
      <point x="756" y="367"/>
      <point x="661" y="450"/>
      <point x="482" y="450" type="curve" smooth="yes"/>
      <point x="202" y="450" type="line"/>
      <point x="202" y="730" type="line"/>
      <point x="144" y="730" type="line"/>
      <point x="144" y="54" type="line"/>
      <point x="20" y="54" type="line"/>
      <point x="20" y="0" type="line"/>
      <point x="846" y="0" type="line"/>
      <point x="846" y="54" type="line"/>
    </contour>
    <contour>
      <point x="698" y="54" type="line"/>
      <point x="202" y="54" type="line"/>
      <point x="202" y="396" type="line"/>
      <point x="482" y="396" type="line" smooth="yes"/>
      <point x="630" y="396"/>
      <point x="698" y="335"/>
      <point x="698" y="210" type="curve" smooth="yes"/>
    </contour>
  </outline>
</glyph>
<glyph name="tah-ar.init" format="2">
  <advance width="846"/>
  <unicode hex="FEC3"/>
  <anchor x="453" y="450" name="top"/>
  <anchor x="441" y="0" name="bottom"/>
  <outline>
    <contour>
      <point x="502" y="450" type="curve" smooth="yes"/>
      <point x="222" y="450" type="line"/>
      <point x="222" y="730" type="line"/>
      <point x="164" y="730" type="line"/>
      <point x="164" y="54" type="line"/>
      <point x="0" y="54" type="line" smooth="yes"/>
      <point x="-14" y="54"/>
      <point x="-25" y="52"/>
      <point x="-25" y="25" type="curve" smooth="yes"/>
      <point x="-25" y="1"/>
      <point x="-14" y="0"/>
      <point x="0" y="0" type="curve" smooth="yes"/>
      <point x="776" y="0" type="line"/>
      <point x="776" y="210" type="line" smooth="yes"/>
      <point x="776" y="367"/>
      <point x="681" y="450"/>
    </contour>
    <contour>
      <point x="718" y="54" type="line"/>
      <point x="222" y="54" type="line"/>
      <point x="222" y="396" type="line"/>
      <point x="502" y="396" type="line" smooth="yes"/>
      <point x="650" y="396"/>
      <point x="718" y="335"/>
      <point x="718" y="210" type="curve" smooth="yes"/>
    </contour>
  </outline>
</glyph>
<glyph name="kaf-ar.medi" format="2">
  <advance width="584"/>
  <unicode hex="FEDC"/>
  <anchor x="104" y="539" name="top"/>
  <anchor x="313" y="0" name="bottom"/>
  <outline>
    <contour>
      <point x="494" y="54" type="line"/>
      <point x="494" y="122" type="line" smooth="yes"/>
      <point x="494" y="332"/>
      <point x="374" y="443"/>
      <point x="141" y="460" type="curve"/>
      <point x="430" y="681" type="line"/>
      <point x="396" y="725" type="line"/>
      <point x="62" y="465" type="line"/>
      <point x="76" y="410" type="line"/>
      <point x="288" y="407"/>
      <point x="436" y="331"/>
      <point x="436" y="122" type="curve" smooth="yes"/>
      <point x="436" y="54" type="line"/>
      <point x="0" y="54" type="line" smooth="yes"/>
      <point x="-14" y="54"/>
      <point x="-25" y="52"/>
      <point x="-25" y="25" type="curve" smooth="yes"/>
      <point x="-25" y="1"/>
      <point x="-14" y="0"/>
      <point x="0" y="0" type="curve" smooth="yes"/>
      <point x="584" y="0" type="line"/>
      <point x="584" y="54" type="line"/>
    </contour>
  </outline>
</glyph>
<glyph name="lam-ar.fina" format="2">
  <advance width="686"/>
  <unicode hex="FEDE"/>
  <anchor x="298" y="450" name="top"/>
  <anchor x="298" y="-180" name="bottom"/>
  <outline>
    <contour>
      <point x="30" y="312" type="line"/>
      <point x="30" y="100" type="line" smooth="yes"/>
      <point x="30" y="-83"/>
      <point x="122" y="-180"/>
      <point x="298" y="-180" type="curve" smooth="yes"/>
      <point x="439" y="-180"/>
      <point x="526" y="-118"/>
      <point x="555" y="0" type="curve"/>
      <point x="686" y="0" type="line"/>
      <point x="686" y="54" type="line"/>
      <point x="564" y="54" type="line"/>
      <point x="565" y="69"/>
      <point x="566" y="84"/>
      <point x="566" y="100" type="curve" smooth="yes"/>
      <point x="566" y="730" type="line"/>
      <point x="508" y="730" type="line"/>
      <point x="508" y="96" type="line" smooth="yes"/>
      <point x="508" y="-56"/>
      <point x="443" y="-126"/>
      <point x="298" y="-126" type="curve" smooth="yes"/>
      <point x="153" y="-126"/>
      <point x="88" y="-56"/>
      <point x="88" y="96" type="curve" smooth="yes"/>
      <point x="88" y="312" type="line"/>
    </contour>
  </outline>
</glyph>
<glyph name="meem-ar.medi" format="2">
  <advance width="622"/>
  <unicode hex="FEE4"/>
  <anchor x="317" y="395" name="top"/>
  <anchor x="317" y="-80" name="bottom"/>
  <outline>
    <contour>
      <point x="0" y="0" type="curve"/>
      <point x="140" y="0" type="line"/>
      <point x="153" y="-27"/>
      <point x="170" y="-53"/>
      <point x="190" y="-80" type="curve"/>
      <point x="292" y="-80" type="line" smooth="yes"/>
      <point x="383" y="-80"/>
      <point x="447" y="-51"/>
      <point x="486" y="0" type="curve"/>
      <point x="622" y="0" type="line"/>
      <point x="622" y="54" type="line"/>
      <point x="515" y="54" type="line"/>
      <point x="527" y="84"/>
      <point x="532" y="119"/>
      <point x="532" y="158" type="curve" smooth="yes"/>
      <point x="532" y="304"/>
      <point x="449" y="395"/>
      <point x="317" y="395" type="curve" smooth="yes"/>
      <point x="184" y="395"/>
      <point x="100" y="304"/>
      <point x="100" y="158" type="curve" smooth="yes"/>
      <point x="100" y="124"/>
      <point x="106" y="89"/>
      <point x="117" y="54" type="curve"/>
      <point x="0" y="54" type="line"/>
      <point x="-14" y="54"/>
      <point x="-25" y="52"/>
      <point x="-25" y="25" type="curve" smooth="yes"/>
      <point x="-25" y="1"/>
      <point x="-14" y="0"/>
    </contour>
    <contour>
      <point x="158" y="158" type="curve" smooth="yes"/>
      <point x="158" y="269"/>
      <point x="212" y="341"/>
      <point x="317" y="341" type="curve" smooth="yes"/>
      <point x="421" y="341"/>
      <point x="474" y="269"/>
      <point x="474" y="158" type="curve" smooth="yes"/>
      <point x="474" y="46"/>
      <point x="421" y="-26"/>
      <point x="299" y="-26" type="curve" smooth="yes"/>
      <point x="216" y="-26" type="line"/>
      <point x="170" y="41"/>
      <point x="158" y="101"/>
    </contour>
  </outline>
</glyph>
<glyph name="lam_alef-ar" format="2">
  <advance width="668"/>
  <unicode hex="FEFB"/>
  <anchor x="298" y="0" name="bottom"/>
  <anchor x="550" y="0" name="bottom_1"/>
  <anchor x="298" y="573" name="top_2"/>
  <anchor x="423" y="0" name="caret_1"/>
  <anchor x="298" y="573" name="top"/>
  <anchor x="550" y="700" name="top_1"/>
  <anchor x="298" y="0" name="bottom_2"/>
  <outline>
    <contour>
      <point x="520" y="730" type="line"/>
      <point x="520" y="54" type="line"/>
      <point x="326" y="54" type="line"/>
      <point x="326" y="573" type="line"/>
      <point x="268" y="573" type="line"/>
      <point x="268" y="54" type="line"/>
      <point x="40" y="54" type="line"/>
      <point x="40" y="0" type="line"/>
      <point x="578" y="0" type="line"/>
      <point x="578" y="730" type="line"/>
    </contour>
  </outline>
</glyph>
<glyph name="alef-ar.short" format="2">
  <advance width="198"/>
  <anchor x="99" y="620" name="top"/>
  <anchor x="99" y="0" name="bottom"/>
  <outline>
    <contour>
      <point x="128" y="630" type="line"/>
      <point x="70" y="630" type="line"/>
      <point x="70" y="0" type="line"/>
      <point x="128" y="0" type="line"/>
    </contour>
  </outline>
</glyph>
<glyph name="behDotless-ar.init" format="2">
  <advance width="306"/>
  <anchor x="188" y="450" name="top"/>
  <anchor x="114" y="0" name="bottom"/>
  <outline>
    <contour>
      <point x="158" y="450" type="line"/>
      <point x="158" y="54" type="line"/>
      <point x="0" y="54" type="line" smooth="yes"/>
      <point x="-14" y="54"/>
      <point x="-25" y="52"/>
      <point x="-25" y="25" type="curve" smooth="yes"/>
      <point x="-25" y="1"/>
      <point x="-14" y="0"/>
      <point x="0" y="0" type="curve" smooth="yes"/>
      <point x="216" y="0" type="line"/>
      <point x="216" y="450" type="line"/>
    </contour>
  </outline>
</glyph>
<glyph name="circumflexcmb.cap" format="2">
  <anchor x="0" y="730" name="_aboveUC"/>
  <anchor x="0" y="710" name="_aboveUCx"/>
  <outline>
    <contour>
      <point x="-140" y="795" type="line"/>
      <point x="-124" y="766" type="line"/>
      <point x="0" y="826" type="line"/>
      <point x="124" y="766" type="line"/>
      <point x="140" y="795" type="line"/>
      <point x="17" y="880" type="line"/>
      <point x="-17" y="880" type="line"/>
    </contour>
  </outline>
</glyph>
<glyph name="colon.fig" format="2">
  <advance width="240"/>
  <outline>
    <contour>
      <point x="161" y="552" type="line"/>
      <point x="79" y="552" type="line"/>
      <point x="79" y="468" type="line"/>
      <point x="161" y="468" type="line"/>
    </contour>
    <contour>
      <point x="161" y="238" type="line"/>
      <point x="79" y="238" type="line"/>
      <point x="79" y="155" type="line"/>
      <point x="161" y="155" type="line"/>
    </contour>
  </outline>
</glyph>
<glyph name="colon.figtab" format="2">
  <advance width="300"/>
  <outline>
    <contour>
      <point x="191" y="552" type="line"/>
      <point x="109" y="552" type="line"/>
      <point x="109" y="468" type="line"/>
      <point x="191" y="468" type="line"/>
    </contour>
    <contour>
      <point x="191" y="238" type="line"/>
      <point x="109" y="238" type="line"/>
      <point x="109" y="155" type="line"/>
      <point x="191" y="155" type="line"/>
    </contour>
  </outline>
</glyph>
<glyph name="comma.tab" format="2">
  <advance width="300"/>
  <outline>
    <contour>
      <point x="75" y="-122" type="line"/>
      <point x="116" y="-122" type="line"/>
      <point x="216" y="84" type="line"/>
      <point x="142" y="84" type="line"/>
    </contour>
  </outline>
</glyph>
<glyph name="dollar.tab" format="2">
  <advance width="600"/>
  <outline>
    <contour>
      <point x="280" y="-121" type="line"/>
      <point x="337" y="-121" type="line"/>
      <point x="337" y="1" type="line"/>
      <point x="470" y="10"/>
      <point x="553" y="91"/>
      <point x="553" y="195" type="curve" smooth="yes"/>
      <point x="553" y="297"/>
      <point x="499" y="362"/>
      <point x="331" y="387" type="curve"/>
      <point x="331" y="650" type="line"/>
      <point x="393" y="643"/>
      <point x="449" y="609"/>
      <point x="502" y="559" type="curve"/>
      <point x="539" y="602" type="line"/>
      <point x="481" y="655"/>
      <point x="420" y="692"/>
      <point x="337" y="700" type="curve"/>
      <point x="337" y="802" type="line"/>
      <point x="280" y="802" type="line"/>
      <point x="280" y="700" type="line"/>
      <point x="146" y="690"/>
      <point x="75" y="601"/>
      <point x="75" y="520" type="curve" smooth="yes"/>
      <point x="75" y="413"/>
      <point x="135" y="352"/>
      <point x="286" y="334" type="curve"/>
      <point x="286" y="51" type="line"/>
      <point x="212" y="57"/>
      <point x="155" y="90"/>
      <point x="86" y="160" type="curve"/>
      <point x="46" y="119" type="line"/>
      <point x="113" y="48"/>
      <point x="182" y="8"/>
      <point x="280" y="1" type="curve"/>
    </contour>
    <contour>
      <point x="133" y="522" type="curve" smooth="yes"/>
      <point x="133" y="584"/>
      <point x="186" y="645"/>
      <point x="286" y="651" type="curve"/>
      <point x="286" y="389" type="line"/>
      <point x="174" y="408"/>
      <point x="133" y="452"/>
    </contour>
    <contour>
      <point x="495" y="194" type="curve" smooth="yes"/>
      <point x="495" y="123"/>
      <point x="438" y="58"/>
      <point x="331" y="51" type="curve"/>
      <point x="331" y="331" type="line"/>
      <point x="457" y="308"/>
      <point x="495" y="260"/>
    </contour>
  </outline>
</glyph>
<glyph name="five-ar.tab" format="2">
  <advance width="600"/>
  <outline>
    <contour>
      <point x="300" y="522" type="curve" smooth="yes"/>
      <point x="172" y="522"/>
      <point x="87" y="408"/>
      <point x="87" y="219" type="curve" smooth="yes"/>
      <point x="87" y="77"/>
      <point x="169" y="-2"/>
      <point x="300" y="-2" type="curve" smooth="yes"/>
      <point x="431" y="-2"/>
      <point x="513" y="77"/>
      <point x="513" y="219" type="curve" smooth="yes"/>
      <point x="513" y="408"/>
      <point x="428" y="522"/>
    </contour>
    <contour>
      <point x="300" y="468" type="curve" smooth="yes"/>
      <point x="392" y="468"/>
      <point x="455" y="378"/>
      <point x="455" y="219" type="curve" smooth="yes"/>
      <point x="455" y="107"/>
      <point x="399" y="52"/>
      <point x="300" y="52" type="curve" smooth="yes"/>
      <point x="201" y="52"/>
      <point x="145" y="107"/>
      <point x="145" y="219" type="curve" smooth="yes"/>
      <point x="145" y="378"/>
      <point x="208" y="468"/>
    </contour>
  </outline>
</glyph>
<glyph name="gafsarkashabove-ar" format="2">
  <anchor x="104" y="560" name="_top"/>
  <outline>
    <contour>
      <point x="5" y="550" type="line"/>
      <point x="340" y="810" type="line"/>
      <point x="306" y="854" type="line"/>
      <point x="-29" y="594" type="line"/>
    </contour>
  </outline>
</glyph>
<glyph name="gravecmb.cap" format="2">
  <anchor x="0" y="730" name="_aboveUC"/>
  <anchor x="0" y="710" name="_aboveUCx"/>
  <outline>
    <contour>
      <point x="74" y="805" type="line"/>
      <point x="-113" y="888" type="line"/>
      <point x="-135" y="833" type="line"/>
      <point x="59" y="766" type="line"/>
    </contour>
  </outline>
</glyph>
<glyph name="middotcat.cap" format="2">
  <advance width="210"/>
  <guideline x="114" y="416" angle="90.0" identifier="CgSf1NXqJn"/>
  <outline>
    <contour>
      <point x="78" y="388" type="line"/>
      <point x="0" y="388" type="line"/>
      <point x="0" y="316" type="line"/>
      <point x="78" y="316" type="line"/>
    </contour>
  </outline>
</glyph>
<glyph name="middotcat" format="2">
  <advance width="130"/>
  <guideline x="84" y="783" angle="90.0" identifier="r86UeLUPm6"/>
  <outline>
    <contour>
      <point x="102" y="399" type="line"/>
      <point x="28" y="399" type="line"/>
      <point x="28" y="332" type="line"/>
      <point x="102" y="332" type="line"/>
    </contour>
  </outline>
</glyph>
<glyph name="nine.tab" format="2">
  <advance width="600"/>
  <outline>
    <contour>
      <point x="375" y="143" type="line" smooth="yes"/>
      <point x="509" y="288"/>
      <point x="542" y="376"/>
      <point x="542" y="484" type="curve" smooth="yes"/>
      <point x="542" y="621"/>
      <point x="438" y="717"/>
      <point x="308" y="717" type="curve" smooth="yes"/>
      <point x="162" y="717"/>
      <point x="56" y="615"/>
      <point x="56" y="474" type="curve" smooth="yes"/>
      <point x="56" y="339"/>
      <point x="150" y="248"/>
      <point x="280" y="248" type="curve" smooth="yes"/>
      <point x="339" y="248"/>
      <point x="389" y="263"/>
      <point x="434" y="304" type="curve"/>
      <point x="410" y="263"/>
      <point x="378" y="223"/>
      <point x="329" y="172" type="curve" smooth="yes"/>
      <point x="164" y="2" type="line"/>
      <point x="164" y="0" type="line"/>
      <point x="243" y="0" type="line"/>
    </contour>
    <contour>
      <point x="480" y="479" type="curve" smooth="yes"/>
      <point x="480" y="373"/>
      <point x="400" y="298"/>
      <point x="295" y="298" type="curve" smooth="yes"/>
      <point x="184" y="298"/>
      <point x="118" y="372"/>
      <point x="118" y="472" type="curve" smooth="yes"/>
      <point x="118" y="579"/>
      <point x="191" y="666"/>
      <point x="305" y="666" type="curve" smooth="yes"/>
      <point x="401" y="666"/>
      <point x="480" y="593"/>
    </contour>
  </outline>
</glyph>
<glyph name="one.tab" format="2">
  <advance width="600"/>
  <outline>
    <contour>
      <point x="92" y="0" type="line"/>
      <point x="525" y="0" type="line"/>
      <point x="525" y="51" type="line"/>
      <point x="339" y="51" type="line"/>
      <point x="339" y="700" type="line"/>
      <point x="92" y="700" type="line"/>
      <point x="92" y="649" type="line"/>
      <point x="278" y="649" type="line"/>
      <point x="278" y="51" type="line"/>
      <point x="92" y="51" type="line"/>
    </contour>
  </outline>
</glyph>
<glyph name="periodcentered.tab" format="2">
  <advance width="300"/>
  <guideline x="143" y="841" angle="90.0" identifier="bxK1OQdO1p"/>
  <outline>
    <contour>
      <point x="191" y="395" type="line"/>
      <point x="109" y="395" type="line"/>
      <point x="109" y="311" type="line"/>
      <point x="191" y="311" type="line"/>
    </contour>
  </outline>
</glyph>
<glyph name="quotesingle.tab" format="2">
  <advance width="300"/>
  <outline>
    <contour>
      <point x="117" y="499" type="line"/>
      <point x="154" y="499" type="line"/>
      <point x="188" y="700" type="line"/>
      <point x="117" y="700" type="line"/>
    </contour>
  </outline>
</glyph>
<glyph name="six.tab" format="2">
  <advance width="600"/>
  <outline>
    <contour>
      <point x="544" y="226" type="curve" smooth="yes"/>
      <point x="544" y="361"/>
      <point x="450" y="452"/>
      <point x="320" y="452" type="curve" smooth="yes"/>
      <point x="261" y="452"/>
      <point x="211" y="437"/>
      <point x="166" y="396" type="curve"/>
      <point x="190" y="437"/>
      <point x="222" y="477"/>
      <point x="271" y="528" type="curve" smooth="yes"/>
      <point x="436" y="698" type="line"/>
      <point x="436" y="700" type="line"/>
      <point x="357" y="700" type="line"/>
      <point x="225" y="557" type="line" smooth="yes"/>
      <point x="91" y="412"/>
      <point x="58" y="324"/>
      <point x="58" y="216" type="curve" smooth="yes"/>
      <point x="58" y="79"/>
      <point x="162" y="-17"/>
      <point x="292" y="-17" type="curve" smooth="yes"/>
      <point x="438" y="-17"/>
      <point x="544" y="85"/>
    </contour>
    <contour>
      <point x="120" y="221" type="curve" smooth="yes"/>
      <point x="120" y="327"/>
      <point x="200" y="402"/>
      <point x="305" y="402" type="curve" smooth="yes"/>
      <point x="416" y="402"/>
      <point x="482" y="328"/>
      <point x="482" y="228" type="curve" smooth="yes"/>
      <point x="482" y="121"/>
      <point x="409" y="34"/>
      <point x="295" y="34" type="curve" smooth="yes"/>
      <point x="199" y="34"/>
      <point x="120" y="107"/>
    </contour>
  </outline>
</glyph>
<glyph name="yen.tab" format="2">
  <advance width="600"/>
  <outline>
    <contour>
      <point x="69" y="154" type="line"/>
      <point x="269" y="154" type="line"/>
      <point x="269" y="0" type="line"/>
      <point x="330" y="0" type="line"/>
      <point x="330" y="154" type="line"/>
      <point x="530" y="154" type="line"/>
      <point x="530" y="202" type="line"/>
      <point x="330" y="202" type="line"/>
      <point x="330" y="298" type="line"/>
      <point x="530" y="298" type="line"/>
      <point x="530" y="346" type="line"/>
      <point x="347" y="346" type="line"/>
      <point x="567" y="700" type="line"/>
      <point x="493" y="700" type="line"/>
      <point x="302" y="368" type="line"/>
      <point x="111" y="700" type="line"/>
      <point x="33" y="700" type="line"/>
      <point x="252" y="346" type="line"/>
      <point x="69" y="346" type="line"/>
      <point x="69" y="298" type="line"/>
      <point x="269" y="298" type="line"/>
      <point x="269" y="202" type="line"/>
      <point x="69" y="202" type="line"/>
    </contour>
  </outline>
</glyph>
